<svg width="1138" height="1394" viewBox="0 0 1138 1394" fill="none" xmlns="http://www.w3.org/2000/svg">
<g filter="url(#filter0_dii_23_829)">
<path d="M919.475 616.557C910.69 693.131 886.86 791.361 651.596 789.815C416.332 788.27 449.78 656.072 458.566 579.498C467.351 502.924 563.461 446.673 687.936 459.464C812.411 472.255 928.261 539.983 919.475 616.557Z" fill="url(#paint0_linear_23_829)"/>
<path d="M851.766 373.031C842.98 449.605 819.151 547.835 583.886 546.29C348.622 544.744 382.07 412.546 390.856 335.972C399.642 259.398 495.752 203.147 620.226 215.938C744.701 228.729 860.552 296.457 851.766 373.031Z" fill="url(#paint1_linear_23_829)"/>
<ellipse cx="260.065" cy="202.293" rx="260.065" ry="202.293" transform="matrix(0.985355 0.170517 -0.189714 0.981839 467.133 0)" fill="url(#paint2_radial_23_829)"/>
<path d="M507.94 168.06C529.769 219.109 484.027 289.862 405.997 319.744C327.967 349.626 236.666 340.01 214.838 288.961C193.01 237.912 238.751 167.16 316.782 137.278C394.812 107.395 486.112 117.011 507.94 168.06Z" fill="url(#paint3_linear_23_829)"/>
<path d="M498.928 682.56C407.68 760.044 259.005 744.067 166.854 646.875C74.7025 549.683 73.9703 408.081 165.218 330.597C256.466 253.114 405.141 269.09 497.292 366.283C589.443 463.475 590.176 605.077 498.928 682.56Z" fill="url(#paint4_linear_23_829)"/>
<path d="M860.458 692.557C764.297 677.797 735.795 578.456 756.259 459.061C799.645 347.289 859.812 279.583 955.973 294.343C1052.13 309.104 1109.51 403.341 1089.05 522.737C1068.59 642.132 956.618 707.318 860.458 692.557Z" fill="url(#paint5_radial_23_829)"/>
</g>
<g filter="url(#filter1_f_23_829)">
<ellipse cx="605.406" cy="585.57" rx="332.142" ry="87.6754" fill="url(#paint6_linear_23_829)"/>
</g>
<g filter="url(#filter2_dii_23_829)">
<path d="M466.544 598.526C469.702 591.187 476.925 586.432 484.915 586.432L729.749 586.432C745.723 586.432 755.251 604.235 746.39 617.526L662.583 743.234C652.373 758.549 666.524 778.359 684.322 773.668L750.305 756.274C768.379 751.51 782.53 771.938 771.716 787.184L633.333 982.285L419.679 1258.94C406.741 1275.69 380.047 1263.49 384.248 1242.75L446.623 934.729C449.132 922.34 439.662 910.759 427.021 910.759L362.551 910.759C348.18 910.759 338.499 896.053 344.18 882.853L466.544 598.526Z" fill="url(#paint7_radial_23_829)"/>
</g>
<g filter="url(#filter3_dii_23_829)">
<path d="M352.712 648.146C352.712 687.913 318.588 721.963 280.968 721.963C243.347 721.963 210 687.913 210 648.146C210 618.107 249.128 573.463 270.665 563.861C276.774 561.137 285.149 561.354 291.198 564.209C312.299 574.171 352.712 616.718 352.712 648.146Z" fill="#50B1D8"/>
</g>
<g filter="url(#filter4_f_23_829)">
<ellipse cx="231.498" cy="661.976" rx="17.8714" ry="20.2024" fill="white"/>
</g>
<g filter="url(#filter5_dii_23_829)">
<path d="M862.712 1007.15C862.712 1046.91 828.588 1080.96 790.968 1080.96C753.347 1080.96 720 1046.91 720 1007.15C720 977.107 759.128 932.463 780.665 922.861C786.774 920.137 795.149 920.354 801.198 923.209C822.299 933.171 862.712 975.718 862.712 1007.15Z" fill="#50B1D8"/>
</g>
<g filter="url(#filter6_f_23_829)">
<ellipse cx="741.498" cy="1020.98" rx="17.8714" ry="20.2024" fill="white"/>
</g>
<g filter="url(#filter7_dii_23_829)">
<path d="M341.712 1229.15C341.712 1268.91 307.588 1302.96 269.968 1302.96C232.347 1302.96 199 1268.91 199 1229.15C199 1199.11 238.128 1154.46 259.665 1144.86C265.774 1142.14 274.149 1142.35 280.198 1145.21C301.299 1155.17 341.712 1197.72 341.712 1229.15Z" fill="#50B1D8"/>
</g>
<g filter="url(#filter8_f_23_829)">
<ellipse cx="220.498" cy="1242.98" rx="17.8714" ry="20.2024" fill="white"/>
</g>
<defs>
<filter id="filter0_dii_23_829" x="57.2578" y="37.4102" width="1037.92" height="792.422" filterUnits="userSpaceOnUse" color-interpolation-filters="sRGB">
<feFlood flood-opacity="0" result="BackgroundImageFix"/>
<feColorMatrix in="SourceAlpha" type="matrix" values="0 0 0 0 0 0 0 0 0 0 0 0 0 0 0 0 0 0 127 0" result="hardAlpha"/>
<feOffset dx="-20" dy="20"/>
<feGaussianBlur stdDeviation="10"/>
<feComposite in2="hardAlpha" operator="out"/>
<feColorMatrix type="matrix" values="0 0 0 0 0 0 0 0 0 0 0 0 0 0 0 0 0 0 0.25 0"/>
<feBlend mode="normal" in2="BackgroundImageFix" result="effect1_dropShadow_23_829"/>
<feBlend mode="normal" in="SourceGraphic" in2="effect1_dropShadow_23_829" result="shape"/>
<feColorMatrix in="SourceAlpha" type="matrix" values="0 0 0 0 0 0 0 0 0 0 0 0 0 0 0 0 0 0 127 0" result="hardAlpha"/>
<feOffset dx="2" dy="-2"/>
<feGaussianBlur stdDeviation="1"/>
<feComposite in2="hardAlpha" operator="arithmetic" k2="-1" k3="1"/>
<feColorMatrix type="matrix" values="0 0 0 0 0 0 0 0 0 0 0 0 0 0 0 0 0 0 0.25 0"/>
<feBlend mode="normal" in2="shape" result="effect2_innerShadow_23_829"/>
<feColorMatrix in="SourceAlpha" type="matrix" values="0 0 0 0 0 0 0 0 0 0 0 0 0 0 0 0 0 0 127 0" result="hardAlpha"/>
<feOffset dx="-2" dy="2"/>
<feGaussianBlur stdDeviation="1"/>
<feComposite in2="hardAlpha" operator="arithmetic" k2="-1" k3="1"/>
<feColorMatrix type="matrix" values="0 0 0 0 1 0 0 0 0 1 0 0 0 0 1 0 0 0 0.25 0"/>
<feBlend mode="normal" in2="effect2_innerShadow_23_829" result="effect3_innerShadow_23_829"/>
</filter>
<filter id="filter1_f_23_829" x="73.2637" y="297.895" width="1064.29" height="575.352" filterUnits="userSpaceOnUse" color-interpolation-filters="sRGB">
<feFlood flood-opacity="0" result="BackgroundImageFix"/>
<feBlend mode="normal" in="SourceGraphic" in2="BackgroundImageFix" result="shape"/>
<feGaussianBlur stdDeviation="100" result="effect1_foregroundBlur_23_829"/>
</filter>
<filter id="filter2_dii_23_829" x="302.529" y="584.434" width="474.949" height="722.367" filterUnits="userSpaceOnUse" color-interpolation-filters="sRGB">
<feFlood flood-opacity="0" result="BackgroundImageFix"/>
<feColorMatrix in="SourceAlpha" type="matrix" values="0 0 0 0 0 0 0 0 0 0 0 0 0 0 0 0 0 0 127 0" result="hardAlpha"/>
<feOffset dx="-20" dy="20"/>
<feGaussianBlur stdDeviation="10"/>
<feComposite in2="hardAlpha" operator="out"/>
<feColorMatrix type="matrix" values="0 0 0 0 0 0 0 0 0 0 0 0 0 0 0 0 0 0 0.25 0"/>
<feBlend mode="normal" in2="BackgroundImageFix" result="effect1_dropShadow_23_829"/>
<feBlend mode="normal" in="SourceGraphic" in2="effect1_dropShadow_23_829" result="shape"/>
<feColorMatrix in="SourceAlpha" type="matrix" values="0 0 0 0 0 0 0 0 0 0 0 0 0 0 0 0 0 0 127 0" result="hardAlpha"/>
<feOffset dx="2" dy="-2"/>
<feGaussianBlur stdDeviation="1"/>
<feComposite in2="hardAlpha" operator="arithmetic" k2="-1" k3="1"/>
<feColorMatrix type="matrix" values="0 0 0 0 0 0 0 0 0 0 0 0 0 0 0 0 0 0 0.25 0"/>
<feBlend mode="normal" in2="shape" result="effect2_innerShadow_23_829"/>
<feColorMatrix in="SourceAlpha" type="matrix" values="0 0 0 0 0 0 0 0 0 0 0 0 0 0 0 0 0 0 127 0" result="hardAlpha"/>
<feOffset dx="-2" dy="2"/>
<feGaussianBlur stdDeviation="1"/>
<feComposite in2="hardAlpha" operator="arithmetic" k2="-1" k3="1"/>
<feColorMatrix type="matrix" values="0 0 0 0 1 0 0 0 0 1 0 0 0 0 1 0 0 0 0.25 0"/>
<feBlend mode="normal" in2="effect2_innerShadow_23_829" result="effect3_innerShadow_23_829"/>
</filter>
<filter id="filter3_dii_23_829" x="170" y="561.938" width="184.713" height="200.027" filterUnits="userSpaceOnUse" color-interpolation-filters="sRGB">
<feFlood flood-opacity="0" result="BackgroundImageFix"/>
<feColorMatrix in="SourceAlpha" type="matrix" values="0 0 0 0 0 0 0 0 0 0 0 0 0 0 0 0 0 0 127 0" result="hardAlpha"/>
<feOffset dx="-20" dy="20"/>
<feGaussianBlur stdDeviation="10"/>
<feComposite in2="hardAlpha" operator="out"/>
<feColorMatrix type="matrix" values="0 0 0 0 0 0 0 0 0 0 0 0 0 0 0 0 0 0 0.25 0"/>
<feBlend mode="normal" in2="BackgroundImageFix" result="effect1_dropShadow_23_829"/>
<feBlend mode="normal" in="SourceGraphic" in2="effect1_dropShadow_23_829" result="shape"/>
<feColorMatrix in="SourceAlpha" type="matrix" values="0 0 0 0 0 0 0 0 0 0 0 0 0 0 0 0 0 0 127 0" result="hardAlpha"/>
<feOffset dx="2"/>
<feGaussianBlur stdDeviation="10"/>
<feComposite in2="hardAlpha" operator="arithmetic" k2="-1" k3="1"/>
<feColorMatrix type="matrix" values="0 0 0 0 0.294118 0 0 0 0 0.607843 0 0 0 0 0.733333 0 0 0 0.7 0"/>
<feBlend mode="normal" in2="shape" result="effect2_innerShadow_23_829"/>
<feColorMatrix in="SourceAlpha" type="matrix" values="0 0 0 0 0 0 0 0 0 0 0 0 0 0 0 0 0 0 127 0" result="hardAlpha"/>
<feOffset dx="-2"/>
<feGaussianBlur stdDeviation="10"/>
<feComposite in2="hardAlpha" operator="arithmetic" k2="-1" k3="1"/>
<feColorMatrix type="matrix" values="0 0 0 0 0.293333 0 0 0 0 0.608235 0 0 0 0 0.733333 0 0 0 0.7 0"/>
<feBlend mode="normal" in2="effect2_innerShadow_23_829" result="effect3_innerShadow_23_829"/>
</filter>
<filter id="filter4_f_23_829" x="153.627" y="581.773" width="155.742" height="160.406" filterUnits="userSpaceOnUse" color-interpolation-filters="sRGB">
<feFlood flood-opacity="0" result="BackgroundImageFix"/>
<feBlend mode="normal" in="SourceGraphic" in2="BackgroundImageFix" result="shape"/>
<feGaussianBlur stdDeviation="30" result="effect1_foregroundBlur_23_829"/>
</filter>
<filter id="filter5_dii_23_829" x="680" y="920.938" width="184.713" height="200.027" filterUnits="userSpaceOnUse" color-interpolation-filters="sRGB">
<feFlood flood-opacity="0" result="BackgroundImageFix"/>
<feColorMatrix in="SourceAlpha" type="matrix" values="0 0 0 0 0 0 0 0 0 0 0 0 0 0 0 0 0 0 127 0" result="hardAlpha"/>
<feOffset dx="-20" dy="20"/>
<feGaussianBlur stdDeviation="10"/>
<feComposite in2="hardAlpha" operator="out"/>
<feColorMatrix type="matrix" values="0 0 0 0 0 0 0 0 0 0 0 0 0 0 0 0 0 0 0.25 0"/>
<feBlend mode="normal" in2="BackgroundImageFix" result="effect1_dropShadow_23_829"/>
<feBlend mode="normal" in="SourceGraphic" in2="effect1_dropShadow_23_829" result="shape"/>
<feColorMatrix in="SourceAlpha" type="matrix" values="0 0 0 0 0 0 0 0 0 0 0 0 0 0 0 0 0 0 127 0" result="hardAlpha"/>
<feOffset dx="2"/>
<feGaussianBlur stdDeviation="10"/>
<feComposite in2="hardAlpha" operator="arithmetic" k2="-1" k3="1"/>
<feColorMatrix type="matrix" values="0 0 0 0 0.294118 0 0 0 0 0.607843 0 0 0 0 0.733333 0 0 0 0.7 0"/>
<feBlend mode="normal" in2="shape" result="effect2_innerShadow_23_829"/>
<feColorMatrix in="SourceAlpha" type="matrix" values="0 0 0 0 0 0 0 0 0 0 0 0 0 0 0 0 0 0 127 0" result="hardAlpha"/>
<feOffset dx="-2"/>
<feGaussianBlur stdDeviation="10"/>
<feComposite in2="hardAlpha" operator="arithmetic" k2="-1" k3="1"/>
<feColorMatrix type="matrix" values="0 0 0 0 0.293333 0 0 0 0 0.608235 0 0 0 0 0.733333 0 0 0 0.7 0"/>
<feBlend mode="normal" in2="effect2_innerShadow_23_829" result="effect3_innerShadow_23_829"/>
</filter>
<filter id="filter6_f_23_829" x="663.627" y="940.773" width="155.742" height="160.406" filterUnits="userSpaceOnUse" color-interpolation-filters="sRGB">
<feFlood flood-opacity="0" result="BackgroundImageFix"/>
<feBlend mode="normal" in="SourceGraphic" in2="BackgroundImageFix" result="shape"/>
<feGaussianBlur stdDeviation="30" result="effect1_foregroundBlur_23_829"/>
</filter>
<filter id="filter7_dii_23_829" x="159" y="1142.94" width="184.713" height="200.027" filterUnits="userSpaceOnUse" color-interpolation-filters="sRGB">
<feFlood flood-opacity="0" result="BackgroundImageFix"/>
<feColorMatrix in="SourceAlpha" type="matrix" values="0 0 0 0 0 0 0 0 0 0 0 0 0 0 0 0 0 0 127 0" result="hardAlpha"/>
<feOffset dx="-20" dy="20"/>
<feGaussianBlur stdDeviation="10"/>
<feComposite in2="hardAlpha" operator="out"/>
<feColorMatrix type="matrix" values="0 0 0 0 0 0 0 0 0 0 0 0 0 0 0 0 0 0 0.25 0"/>
<feBlend mode="normal" in2="BackgroundImageFix" result="effect1_dropShadow_23_829"/>
<feBlend mode="normal" in="SourceGraphic" in2="effect1_dropShadow_23_829" result="shape"/>
<feColorMatrix in="SourceAlpha" type="matrix" values="0 0 0 0 0 0 0 0 0 0 0 0 0 0 0 0 0 0 127 0" result="hardAlpha"/>
<feOffset dx="2"/>
<feGaussianBlur stdDeviation="10"/>
<feComposite in2="hardAlpha" operator="arithmetic" k2="-1" k3="1"/>
<feColorMatrix type="matrix" values="0 0 0 0 0.294118 0 0 0 0 0.607843 0 0 0 0 0.733333 0 0 0 0.7 0"/>
<feBlend mode="normal" in2="shape" result="effect2_innerShadow_23_829"/>
<feColorMatrix in="SourceAlpha" type="matrix" values="0 0 0 0 0 0 0 0 0 0 0 0 0 0 0 0 0 0 127 0" result="hardAlpha"/>
<feOffset dx="-2"/>
<feGaussianBlur stdDeviation="10"/>
<feComposite in2="hardAlpha" operator="arithmetic" k2="-1" k3="1"/>
<feColorMatrix type="matrix" values="0 0 0 0 0.293333 0 0 0 0 0.608235 0 0 0 0 0.733333 0 0 0 0.7 0"/>
<feBlend mode="normal" in2="effect2_innerShadow_23_829" result="effect3_innerShadow_23_829"/>
</filter>
<filter id="filter8_f_23_829" x="142.627" y="1162.77" width="155.742" height="160.406" filterUnits="userSpaceOnUse" color-interpolation-filters="sRGB">
<feFlood flood-opacity="0" result="BackgroundImageFix"/>
<feBlend mode="normal" in="SourceGraphic" in2="BackgroundImageFix" result="shape"/>
<feGaussianBlur stdDeviation="30" result="effect1_foregroundBlur_23_829"/>
</filter>
<linearGradient id="paint0_linear_23_829" x1="651.92" y1="1109.14" x2="681.794" y2="582.188" gradientUnits="userSpaceOnUse">
<stop offset="1" stop-color="#16425B"/>
</linearGradient>
<linearGradient id="paint1_linear_23_829" x1="651.92" y1="1109.14" x2="681.794" y2="582.188" gradientUnits="userSpaceOnUse">
<stop offset="1" stop-color="#16425B"/>
</linearGradient>
<radialGradient id="paint2_radial_23_829" cx="0" cy="0" r="1" gradientUnits="userSpaceOnUse" gradientTransform="translate(476.104 42.1348) rotate(155.688) scale(249.475 307.741)">
<stop stop-color="#16425B" stop-opacity="0.898638"/>
<stop offset="1" stop-color="#16425B"/>
</radialGradient>
<linearGradient id="paint3_linear_23_829" x1="335.247" y1="131.799" x2="412.804" y2="235.512" gradientUnits="userSpaceOnUse">
<stop offset="1" stop-color="#16425B"/>
</linearGradient>
<linearGradient id="paint4_linear_23_829" x1="25.5796" y1="845.565" x2="304.733" y2="558.906" gradientUnits="userSpaceOnUse">
<stop offset="1" stop-color="#16425B"/>
</linearGradient>
<radialGradient id="paint5_radial_23_829" cx="0" cy="0" r="1" gradientUnits="userSpaceOnUse" gradientTransform="translate(1084.74 304.624) rotate(-178.234) scale(145.341 171.098)">
<stop stop-color="#16425B" stop-opacity="0.898638"/>
<stop offset="1" stop-color="#16425B"/>
</radialGradient>
<linearGradient id="paint6_linear_23_829" x1="621.085" y1="426.858" x2="605.406" y2="673.245" gradientUnits="userSpaceOnUse">
<stop stop-opacity="0"/>
<stop offset="0.125" stop-color="#F4F3E4" stop-opacity="0.354861"/>
<stop offset="0.520833" stop-color="#E6E0AD" stop-opacity="0.496456"/>
<stop offset="1" stop-color="#E1DA9B" stop-opacity="0.543654"/>
</linearGradient>
<radialGradient id="paint7_radial_23_829" cx="0" cy="0" r="1" gradientUnits="userSpaceOnUse" gradientTransform="translate(646.863 794.402) rotate(90.2686) scale(229.617 111.818)">
<stop stop-color="white"/>
<stop offset="1" stop-color="#F9E84F"/>
</radialGradient>
</defs>
</svg>
