<svg width="1893" height="1340" viewBox="0 0 1893 1340" fill="none" xmlns="http://www.w3.org/2000/svg">
<g filter="url(#filter0_dii_23_926)">
<path d="M1687.7 687.451C1678.92 764.026 1655.09 862.256 1419.82 860.71C1184.56 859.165 1218.01 726.966 1226.79 650.392C1235.58 573.818 1331.69 517.567 1456.16 530.358C1580.64 543.149 1696.49 610.877 1687.7 687.451Z" fill="url(#paint0_linear_23_926)"/>
<path d="M1619.99 443.925C1611.21 520.5 1587.38 618.73 1352.11 617.184C1116.85 615.639 1150.3 483.44 1159.08 406.866C1167.87 330.292 1263.98 274.041 1388.45 286.832C1512.93 299.623 1628.78 367.351 1619.99 443.925Z" fill="url(#paint1_linear_23_926)"/>
<ellipse cx="260.065" cy="202.293" rx="260.065" ry="202.293" transform="matrix(0.985355 0.170517 -0.189714 0.981839 1235.36 70.8945)" fill="url(#paint2_radial_23_926)"/>
<path d="M1276.17 238.955C1298 290.004 1252.25 360.756 1174.22 390.639C1096.19 420.521 1004.89 410.905 983.065 359.856C961.236 308.807 1006.98 238.054 1085.01 208.172C1163.04 178.29 1254.34 187.906 1276.17 238.955Z" fill="url(#paint3_linear_23_926)"/>
<path d="M1267.16 753.455C1175.91 830.939 1027.23 814.962 935.081 717.77C842.93 620.578 842.198 478.975 933.446 401.492C1024.69 324.008 1173.37 339.985 1265.52 437.177C1357.67 534.369 1358.4 675.971 1267.16 753.455Z" fill="url(#paint4_linear_23_926)"/>
<path d="M1628.69 763.452C1532.52 748.691 1504.02 649.351 1524.49 529.956C1567.87 418.184 1628.04 350.477 1724.2 365.238C1820.36 379.998 1877.74 474.236 1857.28 593.631C1836.81 713.027 1724.85 778.213 1628.69 763.452Z" fill="url(#paint5_radial_23_926)"/>
</g>
<g filter="url(#filter1_dii_23_926)">
<path d="M895.727 360.395C936.852 567.712 1373.09 538.116 1090.73 650.805C923.816 717.419 734.504 636.11 667.89 469.196C601.277 302.283 682.586 112.971 849.499 46.3575C1137.77 -68.6894 830.628 139.508 895.727 360.395Z" fill="url(#paint6_radial_23_926)"/>
</g>
<g filter="url(#filter2_dii_23_926)">
<path d="M904.702 916.451C895.916 993.025 872.087 1091.26 636.822 1089.71C401.558 1088.16 435.006 955.966 443.792 879.392C452.578 802.818 548.688 746.567 673.162 759.358C797.637 772.149 913.488 839.877 904.702 916.451Z" fill="url(#paint7_linear_23_926)"/>
<path d="M836.993 672.925C828.207 749.499 804.377 847.73 569.113 846.184C333.849 844.639 367.297 712.44 376.083 635.866C384.869 559.292 480.978 503.041 605.453 515.832C729.928 528.623 845.779 596.351 836.993 672.925Z" fill="url(#paint8_linear_23_926)"/>
<ellipse cx="260.065" cy="202.293" rx="260.065" ry="202.293" transform="matrix(0.985355 0.170517 -0.189714 0.981839 452.359 299.895)" fill="url(#paint9_radial_23_926)"/>
<path d="M493.167 467.955C514.995 519.004 469.254 589.756 391.223 619.639C313.193 649.521 221.893 639.905 200.065 588.856C178.236 537.807 223.978 467.054 302.008 437.172C380.038 407.29 471.339 416.906 493.167 467.955Z" fill="url(#paint10_linear_23_926)"/>
<path d="M484.154 982.455C392.906 1059.94 244.232 1043.96 152.08 946.77C59.9291 849.578 59.1968 707.975 150.445 630.492C241.693 553.008 390.367 568.985 482.519 666.177C574.67 763.369 575.402 904.971 484.154 982.455Z" fill="url(#paint11_linear_23_926)"/>
<path d="M845.685 992.452C749.525 977.691 721.023 878.351 741.486 758.956C784.872 647.184 845.04 579.477 941.2 594.238C1037.36 608.998 1094.74 703.236 1074.28 822.631C1053.81 942.027 941.845 1007.21 845.685 992.452Z" fill="url(#paint12_radial_23_926)"/>
</g>
<g filter="url(#filter3_dii_23_926)">
<path d="M968.87 1225.64C968.87 1265.41 934.747 1299.46 897.126 1299.46C859.505 1299.46 826.158 1265.41 826.158 1225.64C826.158 1195.6 865.286 1150.96 886.823 1141.36C892.933 1138.63 901.307 1138.85 907.356 1141.71C928.457 1151.67 968.87 1194.21 968.87 1225.64Z" fill="#50B1D8"/>
</g>
<g filter="url(#filter4_f_23_926)">
<ellipse cx="847.657" cy="1239.47" rx="17.8714" ry="20.2024" fill="white"/>
</g>
<g filter="url(#filter5_dii_23_926)">
<path d="M1206.94 1027.9C1206.94 1067.66 1172.81 1101.71 1135.19 1101.71C1097.57 1101.71 1064.23 1067.66 1064.23 1027.9C1064.23 997.857 1103.35 953.213 1124.89 943.611C1131 940.887 1139.37 941.104 1145.42 943.959C1166.52 953.921 1206.94 996.468 1206.94 1027.9Z" fill="#50B1D8"/>
</g>
<g filter="url(#filter6_f_23_926)">
<ellipse cx="1085.72" cy="1041.73" rx="17.8714" ry="20.2024" fill="white"/>
</g>
<g filter="url(#filter7_dii_23_926)">
<path d="M956.712 830.146C956.712 869.913 922.588 903.963 884.968 903.963C847.347 903.963 814 869.913 814 830.146C814 800.107 853.128 755.463 874.665 745.861C880.774 743.137 889.149 743.354 895.198 746.209C916.299 756.171 956.712 798.718 956.712 830.146Z" fill="#50B1D8"/>
</g>
<g filter="url(#filter8_f_23_926)">
<ellipse cx="835.498" cy="843.976" rx="17.8714" ry="20.2024" fill="white"/>
</g>
<defs>
<filter id="filter0_dii_23_926" x="825.486" y="108.305" width="1037.92" height="792.422" filterUnits="userSpaceOnUse" color-interpolation-filters="sRGB">
<feFlood flood-opacity="0" result="BackgroundImageFix"/>
<feColorMatrix in="SourceAlpha" type="matrix" values="0 0 0 0 0 0 0 0 0 0 0 0 0 0 0 0 0 0 127 0" result="hardAlpha"/>
<feOffset dx="-20" dy="20"/>
<feGaussianBlur stdDeviation="10"/>
<feComposite in2="hardAlpha" operator="out"/>
<feColorMatrix type="matrix" values="0 0 0 0 0 0 0 0 0 0 0 0 0 0 0 0 0 0 0.25 0"/>
<feBlend mode="normal" in2="BackgroundImageFix" result="effect1_dropShadow_23_926"/>
<feBlend mode="normal" in="SourceGraphic" in2="effect1_dropShadow_23_926" result="shape"/>
<feColorMatrix in="SourceAlpha" type="matrix" values="0 0 0 0 0 0 0 0 0 0 0 0 0 0 0 0 0 0 127 0" result="hardAlpha"/>
<feOffset dx="2" dy="-2"/>
<feGaussianBlur stdDeviation="1"/>
<feComposite in2="hardAlpha" operator="arithmetic" k2="-1" k3="1"/>
<feColorMatrix type="matrix" values="0 0 0 0 0 0 0 0 0 0 0 0 0 0 0 0 0 0 0.25 0"/>
<feBlend mode="normal" in2="shape" result="effect2_innerShadow_23_926"/>
<feColorMatrix in="SourceAlpha" type="matrix" values="0 0 0 0 0 0 0 0 0 0 0 0 0 0 0 0 0 0 127 0" result="hardAlpha"/>
<feOffset dx="-2" dy="2"/>
<feGaussianBlur stdDeviation="1"/>
<feComposite in2="hardAlpha" operator="arithmetic" k2="-1" k3="1"/>
<feColorMatrix type="matrix" values="0 0 0 0 1 0 0 0 0 1 0 0 0 0 1 0 0 0 0.25 0"/>
<feBlend mode="normal" in2="effect2_innerShadow_23_926" result="effect3_innerShadow_23_926"/>
</filter>
<filter id="filter1_dii_23_926" x="604.625" y="11.625" width="582.631" height="702.445" filterUnits="userSpaceOnUse" color-interpolation-filters="sRGB">
<feFlood flood-opacity="0" result="BackgroundImageFix"/>
<feColorMatrix in="SourceAlpha" type="matrix" values="0 0 0 0 0 0 0 0 0 0 0 0 0 0 0 0 0 0 127 0" result="hardAlpha"/>
<feOffset dx="-20" dy="20"/>
<feGaussianBlur stdDeviation="10"/>
<feComposite in2="hardAlpha" operator="out"/>
<feColorMatrix type="matrix" values="0 0 0 0 0 0 0 0 0 0 0 0 0 0 0 0 0 0 0.25 0"/>
<feBlend mode="normal" in2="BackgroundImageFix" result="effect1_dropShadow_23_926"/>
<feBlend mode="normal" in="SourceGraphic" in2="effect1_dropShadow_23_926" result="shape"/>
<feColorMatrix in="SourceAlpha" type="matrix" values="0 0 0 0 0 0 0 0 0 0 0 0 0 0 0 0 0 0 127 0" result="hardAlpha"/>
<feOffset dx="2" dy="-2"/>
<feGaussianBlur stdDeviation="1"/>
<feComposite in2="hardAlpha" operator="arithmetic" k2="-1" k3="1"/>
<feColorMatrix type="matrix" values="0 0 0 0 0 0 0 0 0 0 0 0 0 0 0 0 0 0 0.25 0"/>
<feBlend mode="normal" in2="shape" result="effect2_innerShadow_23_926"/>
<feColorMatrix in="SourceAlpha" type="matrix" values="0 0 0 0 0 0 0 0 0 0 0 0 0 0 0 0 0 0 127 0" result="hardAlpha"/>
<feOffset dx="-2" dy="2"/>
<feGaussianBlur stdDeviation="1"/>
<feComposite in2="hardAlpha" operator="arithmetic" k2="-1" k3="1"/>
<feColorMatrix type="matrix" values="0 0 0 0 1 0 0 0 0 1 0 0 0 0 1 0 0 0 0.25 0"/>
<feBlend mode="normal" in2="effect2_innerShadow_23_926" result="effect3_innerShadow_23_926"/>
</filter>
<filter id="filter2_dii_23_926" x="42.4844" y="337.305" width="1037.92" height="792.422" filterUnits="userSpaceOnUse" color-interpolation-filters="sRGB">
<feFlood flood-opacity="0" result="BackgroundImageFix"/>
<feColorMatrix in="SourceAlpha" type="matrix" values="0 0 0 0 0 0 0 0 0 0 0 0 0 0 0 0 0 0 127 0" result="hardAlpha"/>
<feOffset dx="-20" dy="20"/>
<feGaussianBlur stdDeviation="10"/>
<feComposite in2="hardAlpha" operator="out"/>
<feColorMatrix type="matrix" values="0 0 0 0 0 0 0 0 0 0 0 0 0 0 0 0 0 0 0.25 0"/>
<feBlend mode="normal" in2="BackgroundImageFix" result="effect1_dropShadow_23_926"/>
<feBlend mode="normal" in="SourceGraphic" in2="effect1_dropShadow_23_926" result="shape"/>
<feColorMatrix in="SourceAlpha" type="matrix" values="0 0 0 0 0 0 0 0 0 0 0 0 0 0 0 0 0 0 127 0" result="hardAlpha"/>
<feOffset dx="2" dy="-2"/>
<feGaussianBlur stdDeviation="1"/>
<feComposite in2="hardAlpha" operator="arithmetic" k2="-1" k3="1"/>
<feColorMatrix type="matrix" values="0 0 0 0 0 0 0 0 0 0 0 0 0 0 0 0 0 0 0.25 0"/>
<feBlend mode="normal" in2="shape" result="effect2_innerShadow_23_926"/>
<feColorMatrix in="SourceAlpha" type="matrix" values="0 0 0 0 0 0 0 0 0 0 0 0 0 0 0 0 0 0 127 0" result="hardAlpha"/>
<feOffset dx="-2" dy="2"/>
<feGaussianBlur stdDeviation="1"/>
<feComposite in2="hardAlpha" operator="arithmetic" k2="-1" k3="1"/>
<feColorMatrix type="matrix" values="0 0 0 0 1 0 0 0 0 1 0 0 0 0 1 0 0 0 0.25 0"/>
<feBlend mode="normal" in2="effect2_innerShadow_23_926" result="effect3_innerShadow_23_926"/>
</filter>
<filter id="filter3_dii_23_926" x="786.158" y="1139.43" width="184.713" height="200.027" filterUnits="userSpaceOnUse" color-interpolation-filters="sRGB">
<feFlood flood-opacity="0" result="BackgroundImageFix"/>
<feColorMatrix in="SourceAlpha" type="matrix" values="0 0 0 0 0 0 0 0 0 0 0 0 0 0 0 0 0 0 127 0" result="hardAlpha"/>
<feOffset dx="-20" dy="20"/>
<feGaussianBlur stdDeviation="10"/>
<feComposite in2="hardAlpha" operator="out"/>
<feColorMatrix type="matrix" values="0 0 0 0 0 0 0 0 0 0 0 0 0 0 0 0 0 0 0.25 0"/>
<feBlend mode="normal" in2="BackgroundImageFix" result="effect1_dropShadow_23_926"/>
<feBlend mode="normal" in="SourceGraphic" in2="effect1_dropShadow_23_926" result="shape"/>
<feColorMatrix in="SourceAlpha" type="matrix" values="0 0 0 0 0 0 0 0 0 0 0 0 0 0 0 0 0 0 127 0" result="hardAlpha"/>
<feOffset dx="2"/>
<feGaussianBlur stdDeviation="10"/>
<feComposite in2="hardAlpha" operator="arithmetic" k2="-1" k3="1"/>
<feColorMatrix type="matrix" values="0 0 0 0 0.294118 0 0 0 0 0.607843 0 0 0 0 0.733333 0 0 0 0.7 0"/>
<feBlend mode="normal" in2="shape" result="effect2_innerShadow_23_926"/>
<feColorMatrix in="SourceAlpha" type="matrix" values="0 0 0 0 0 0 0 0 0 0 0 0 0 0 0 0 0 0 127 0" result="hardAlpha"/>
<feOffset dx="-2"/>
<feGaussianBlur stdDeviation="10"/>
<feComposite in2="hardAlpha" operator="arithmetic" k2="-1" k3="1"/>
<feColorMatrix type="matrix" values="0 0 0 0 0.293333 0 0 0 0 0.608235 0 0 0 0 0.733333 0 0 0 0.7 0"/>
<feBlend mode="normal" in2="effect2_innerShadow_23_926" result="effect3_innerShadow_23_926"/>
</filter>
<filter id="filter4_f_23_926" x="769.785" y="1159.27" width="155.742" height="160.406" filterUnits="userSpaceOnUse" color-interpolation-filters="sRGB">
<feFlood flood-opacity="0" result="BackgroundImageFix"/>
<feBlend mode="normal" in="SourceGraphic" in2="BackgroundImageFix" result="shape"/>
<feGaussianBlur stdDeviation="30" result="effect1_foregroundBlur_23_926"/>
</filter>
<filter id="filter5_dii_23_926" x="1024.23" y="941.688" width="184.712" height="200.027" filterUnits="userSpaceOnUse" color-interpolation-filters="sRGB">
<feFlood flood-opacity="0" result="BackgroundImageFix"/>
<feColorMatrix in="SourceAlpha" type="matrix" values="0 0 0 0 0 0 0 0 0 0 0 0 0 0 0 0 0 0 127 0" result="hardAlpha"/>
<feOffset dx="-20" dy="20"/>
<feGaussianBlur stdDeviation="10"/>
<feComposite in2="hardAlpha" operator="out"/>
<feColorMatrix type="matrix" values="0 0 0 0 0 0 0 0 0 0 0 0 0 0 0 0 0 0 0.25 0"/>
<feBlend mode="normal" in2="BackgroundImageFix" result="effect1_dropShadow_23_926"/>
<feBlend mode="normal" in="SourceGraphic" in2="effect1_dropShadow_23_926" result="shape"/>
<feColorMatrix in="SourceAlpha" type="matrix" values="0 0 0 0 0 0 0 0 0 0 0 0 0 0 0 0 0 0 127 0" result="hardAlpha"/>
<feOffset dx="2"/>
<feGaussianBlur stdDeviation="10"/>
<feComposite in2="hardAlpha" operator="arithmetic" k2="-1" k3="1"/>
<feColorMatrix type="matrix" values="0 0 0 0 0.294118 0 0 0 0 0.607843 0 0 0 0 0.733333 0 0 0 0.7 0"/>
<feBlend mode="normal" in2="shape" result="effect2_innerShadow_23_926"/>
<feColorMatrix in="SourceAlpha" type="matrix" values="0 0 0 0 0 0 0 0 0 0 0 0 0 0 0 0 0 0 127 0" result="hardAlpha"/>
<feOffset dx="-2"/>
<feGaussianBlur stdDeviation="10"/>
<feComposite in2="hardAlpha" operator="arithmetic" k2="-1" k3="1"/>
<feColorMatrix type="matrix" values="0 0 0 0 0.293333 0 0 0 0 0.608235 0 0 0 0 0.733333 0 0 0 0.7 0"/>
<feBlend mode="normal" in2="effect2_innerShadow_23_926" result="effect3_innerShadow_23_926"/>
</filter>
<filter id="filter6_f_23_926" x="1007.85" y="961.523" width="155.743" height="160.406" filterUnits="userSpaceOnUse" color-interpolation-filters="sRGB">
<feFlood flood-opacity="0" result="BackgroundImageFix"/>
<feBlend mode="normal" in="SourceGraphic" in2="BackgroundImageFix" result="shape"/>
<feGaussianBlur stdDeviation="30" result="effect1_foregroundBlur_23_926"/>
</filter>
<filter id="filter7_dii_23_926" x="774" y="743.938" width="184.713" height="200.027" filterUnits="userSpaceOnUse" color-interpolation-filters="sRGB">
<feFlood flood-opacity="0" result="BackgroundImageFix"/>
<feColorMatrix in="SourceAlpha" type="matrix" values="0 0 0 0 0 0 0 0 0 0 0 0 0 0 0 0 0 0 127 0" result="hardAlpha"/>
<feOffset dx="-20" dy="20"/>
<feGaussianBlur stdDeviation="10"/>
<feComposite in2="hardAlpha" operator="out"/>
<feColorMatrix type="matrix" values="0 0 0 0 0 0 0 0 0 0 0 0 0 0 0 0 0 0 0.25 0"/>
<feBlend mode="normal" in2="BackgroundImageFix" result="effect1_dropShadow_23_926"/>
<feBlend mode="normal" in="SourceGraphic" in2="effect1_dropShadow_23_926" result="shape"/>
<feColorMatrix in="SourceAlpha" type="matrix" values="0 0 0 0 0 0 0 0 0 0 0 0 0 0 0 0 0 0 127 0" result="hardAlpha"/>
<feOffset dx="2"/>
<feGaussianBlur stdDeviation="10"/>
<feComposite in2="hardAlpha" operator="arithmetic" k2="-1" k3="1"/>
<feColorMatrix type="matrix" values="0 0 0 0 0.294118 0 0 0 0 0.607843 0 0 0 0 0.733333 0 0 0 0.7 0"/>
<feBlend mode="normal" in2="shape" result="effect2_innerShadow_23_926"/>
<feColorMatrix in="SourceAlpha" type="matrix" values="0 0 0 0 0 0 0 0 0 0 0 0 0 0 0 0 0 0 127 0" result="hardAlpha"/>
<feOffset dx="-2"/>
<feGaussianBlur stdDeviation="10"/>
<feComposite in2="hardAlpha" operator="arithmetic" k2="-1" k3="1"/>
<feColorMatrix type="matrix" values="0 0 0 0 0.293333 0 0 0 0 0.608235 0 0 0 0 0.733333 0 0 0 0.7 0"/>
<feBlend mode="normal" in2="effect2_innerShadow_23_926" result="effect3_innerShadow_23_926"/>
</filter>
<filter id="filter8_f_23_926" x="757.627" y="763.773" width="155.742" height="160.406" filterUnits="userSpaceOnUse" color-interpolation-filters="sRGB">
<feFlood flood-opacity="0" result="BackgroundImageFix"/>
<feBlend mode="normal" in="SourceGraphic" in2="BackgroundImageFix" result="shape"/>
<feGaussianBlur stdDeviation="30" result="effect1_foregroundBlur_23_926"/>
</filter>
<linearGradient id="paint0_linear_23_926" x1="1420.15" y1="1180.03" x2="1450.02" y2="653.082" gradientUnits="userSpaceOnUse">
<stop offset="1" stop-color="#16425B"/>
</linearGradient>
<linearGradient id="paint1_linear_23_926" x1="1420.15" y1="1180.03" x2="1450.02" y2="653.082" gradientUnits="userSpaceOnUse">
<stop offset="1" stop-color="#16425B"/>
</linearGradient>
<radialGradient id="paint2_radial_23_926" cx="0" cy="0" r="1" gradientUnits="userSpaceOnUse" gradientTransform="translate(476.104 42.1348) rotate(155.688) scale(249.475 307.742)">
<stop stop-color="#16425B" stop-opacity="0.898638"/>
<stop offset="1" stop-color="#16425B"/>
</radialGradient>
<linearGradient id="paint3_linear_23_926" x1="1103.47" y1="202.694" x2="1181.03" y2="306.407" gradientUnits="userSpaceOnUse">
<stop offset="1" stop-color="#16425B"/>
</linearGradient>
<linearGradient id="paint4_linear_23_926" x1="793.807" y1="916.46" x2="1072.96" y2="629.8" gradientUnits="userSpaceOnUse">
<stop offset="1" stop-color="#16425B"/>
</linearGradient>
<radialGradient id="paint5_radial_23_926" cx="0" cy="0" r="1" gradientUnits="userSpaceOnUse" gradientTransform="translate(1852.97 375.518) rotate(-178.234) scale(145.341 171.098)">
<stop stop-color="#16425B" stop-opacity="0.898638"/>
<stop offset="1" stop-color="#16425B"/>
</radialGradient>
<radialGradient id="paint6_radial_23_926" cx="0" cy="0" r="1" gradientUnits="userSpaceOnUse" gradientTransform="translate(941.077 192.778) rotate(44.4939) scale(196.053 162.325)">
<stop stop-color="white"/>
<stop offset="1" stop-color="#F9E84F"/>
</radialGradient>
<linearGradient id="paint7_linear_23_926" x1="637.146" y1="1409.03" x2="667.02" y2="882.082" gradientUnits="userSpaceOnUse">
<stop offset="1" stop-color="#16425B"/>
</linearGradient>
<linearGradient id="paint8_linear_23_926" x1="637.146" y1="1409.03" x2="667.02" y2="882.082" gradientUnits="userSpaceOnUse">
<stop offset="1" stop-color="#16425B"/>
</linearGradient>
<radialGradient id="paint9_radial_23_926" cx="0" cy="0" r="1" gradientUnits="userSpaceOnUse" gradientTransform="translate(476.104 42.1348) rotate(155.688) scale(249.475 307.741)">
<stop stop-color="#16425B" stop-opacity="0.898638"/>
<stop offset="1" stop-color="#16425B"/>
</radialGradient>
<linearGradient id="paint10_linear_23_926" x1="320.474" y1="431.694" x2="398.03" y2="535.407" gradientUnits="userSpaceOnUse">
<stop offset="1" stop-color="#16425B"/>
</linearGradient>
<linearGradient id="paint11_linear_23_926" x1="10.8061" y1="1145.46" x2="289.959" y2="858.8" gradientUnits="userSpaceOnUse">
<stop offset="1" stop-color="#16425B"/>
</linearGradient>
<radialGradient id="paint12_radial_23_926" cx="0" cy="0" r="1" gradientUnits="userSpaceOnUse" gradientTransform="translate(1069.97 604.518) rotate(-178.234) scale(145.341 171.098)">
<stop stop-color="#16425B" stop-opacity="0.898638"/>
<stop offset="1" stop-color="#16425B"/>
</radialGradient>
</defs>
</svg>
